
<svg version="1.1" xmlns="http://www.w3.org/2000/svg" viewBox="0 0 64 64">
  <radialGradient id="gradient" cx="8.4482" cy="-623.7255" r="93.1422" gradientTransform="matrix(0.9986 -5.233596e-02 4.448556e-02 0.8488 25.0044 592.9141)" gradientUnits="userSpaceOnUse">
  	<stop offset="0" style="stop-color:#FED576"/>
  	<stop offset="0.2634" style="stop-color:#F47133"/>
  	<stop offset="0.6091" style="stop-color:#BC3081"/>
  	<stop offset="1" style="stop-color:#4C63D2"/>
  </radialGradient>
  <path fill="url(#gradient)" d="M4,64c-2.2,0-4-1.8-4-4V4c0-2.2,1.8-4,4-4h56c2.2,0,4,1.8,4,4v56c0,2.2-1.8,4-4,4H4z"/>
  <path fill="#FFFFFF" d="M32,12.3c6.4,0,7.2,0,9.7,0.1c2.4,0.1,3.7,0.5,4.5,0.8c1.1,0.5,1.9,0.9,2.7,1.8 c0.8,0.8,1.4,1.6,1.8,2.7c0.3,0.8,0.7,2.2,0.8,4.5c0.1,2.5,0.1,3.3,0.1,9.7s0,7.2-0.1,9.7c-0.1,2.4-0.5,3.7-0.8,4.5 c-0.5,1.1-0.9,1.9-1.8,2.7c-0.9,0.8-1.6,1.4-2.7,1.8c-0.8,0.3-2.1,0.7-4.5,0.8c-2.5,0.1-3.3,0.1-9.7,0.1s-7.2,0-9.7-0.1 c-2.3-0.1-3.7-0.5-4.5-0.8c-1.1-0.5-1.9-0.9-2.7-1.8c-0.8-0.8-1.4-1.6-1.8-2.7c-0.3-0.8-0.7-2.2-0.8-4.5c-0.1-2.5-0.1-3.3-0.1-9.7 s0-7.2,0.1-9.7c0.1-2.4,0.5-3.7,0.8-4.5c0.5-1.1,0.9-1.9,1.8-2.7c0.8-0.8,1.6-1.4,2.7-1.8c0.8-0.3,2.2-0.7,4.5-0.8 C24.8,12.3,25.6,12.3,32,12.3 M32,8c-6.5,0-7.3,0-9.9,0.1c-2.5,0.1-4.3,0.6-5.8,1.1c-1.6,0.6-3,1.5-4.2,2.7s-2.2,2.6-2.7,4.2 c-0.6,1.5-1,3.3-1.1,5.8C8,24.7,8,25.5,8,32s0,7.3,0.1,9.9c0.1,2.5,0.6,4.3,1.1,5.8c0.6,1.6,1.5,3,2.7,4.2s2.6,2.2,4.2,2.7 c1.5,0.6,3.3,1,5.8,1.1C24.7,56,25.5,56,32,56s7.3,0,9.9-0.1c2.5-0.1,4.3-0.6,5.8-1.1c1.6-0.6,2.9-1.5,4.2-2.7 c1.4-1.4,2.2-2.6,2.7-4.2c0.6-1.5,1-3.3,1.1-5.8S56,38.5,56,32s0-7.3-0.1-9.9c-0.1-2.5-0.6-4.3-1.1-5.8c-0.6-1.6-1.5-3-2.7-4.2 c-1.4-1.4-2.6-2.2-4.2-2.7c-1.5-0.6-3.3-1-5.8-1.1C39.3,8,38.5,8,32,8L32,8z M32,19.7c-6.9,0-12.3,5.5-12.3,12.3S25.1,44.3,32,44.3 S44.3,38.7,44.3,32S38.7,19.7,32,19.7z M32,40c-4.5,0-8-3.5-8-8s3.5-8,8-8s8,3.5,8,8S36.5,40,32,40z M44.8,16.3 c-1.6,0-2.9,1.3-2.9,2.9c0,1.6,1.3,2.9,2.9,2.9c1.6,0,2.9-1.3,2.9-2.9C47.7,17.6,46.4,16.3,44.8,16.3z"/>
</svg>
