<svg version="1.1" xmlns="http://www.w3.org/2000/svg" viewBox="0 0 64 64">
  <path fill="#FFFC00" d="M4,0h56c2.2,0,4,1.8,4,4v56c0,2.2-1.8,4-4,4H4c-2.2,0-4-1.8-4-4V4C0,1.8,1.8,0,4,0z"/>
  <path d="M53.8,42.4c-0.3-0.8-0.9-1.3-1.5-1.6c-0.1-0.1-0.2-0.1-0.3-0.2c-0.2-0.1-0.4-0.2-0.6-0.3c-2-1.1-3.6-2.5-4.7-4.1 c-0.3-0.5-0.6-0.9-0.8-1.5c-0.1-0.3-0.1-0.4,0-0.6C46,34.1,46,34,46.2,34c0.3-0.2,0.7-0.5,0.9-0.6c0.4-0.3,0.8-0.5,1-0.7 c0.8-0.6,1.4-1.2,1.8-1.9c0.5-1,0.6-2.1,0.2-3.2c-0.5-1.5-1.9-2.4-3.6-2.4c-0.3,0-0.7,0-1,0.1c-0.1,0-0.2,0-0.3,0.1 c0-1,0-2.1-0.1-3.1c-0.3-3.7-1.6-5.6-2.9-7.1c-0.8-1-1.8-1.8-2.9-2.4c-2-1.2-4.3-1.7-6.7-1.7s-4.7,0.6-6.7,1.7 c-1.1,0.6-2.1,1.4-2.9,2.4c-1.3,1.5-2.6,3.5-2.9,7.1c-0.1,1-0.1,2.1-0.1,3.1c-0.1,0-0.2,0-0.3-0.1c-0.3-0.1-0.7-0.1-1-0.1 c-1.7,0-3,0.9-3.6,2.4c-0.4,1-0.3,2.2,0.2,3.2c0.4,0.7,0.9,1.3,1.8,1.9c0.2,0.2,0.6,0.4,1,0.7c0.2,0.2,0.6,0.4,0.9,0.6 c0.1,0.1,0.2,0.2,0.3,0.3c0.1,0.1,0.1,0.3,0,0.6c-0.2,0.5-0.5,1-0.8,1.4c-1.1,1.6-2.6,2.9-4.6,4c-1,0.6-2.1,0.9-2.6,2.2 c-0.3,0.9-0.1,2,0.8,2.9l0,0c0.3,0.3,0.7,0.6,1.1,0.8c0.8,0.5,1.8,0.8,2.7,1.1c0.2,0.1,0.4,0.1,0.5,0.2c0.3,0.3,0.3,0.7,0.7,1.3 c0.2,0.3,0.5,0.6,0.8,0.8c0.9,0.6,1.9,0.7,2.9,0.7c1,0,2,0.1,3.3,0.5c0.5,0.2,1,0.5,1.7,0.9c1.5,0.9,3.5,2.2,6.9,2.2 s5.4-1.3,6.9-2.2c0.6-0.4,1.1-0.7,1.6-0.9c1.2-0.4,2.3-0.5,3.3-0.5c1.1,0,2.1-0.1,2.9-0.7c0.4-0.3,0.7-0.6,0.9-1 c0.3-0.5,0.3-0.9,0.6-1.1c0.2-0.1,0.3-0.2,0.5-0.2c0.9-0.3,1.9-0.6,2.7-1.1c0.4-0.2,0.8-0.5,1.2-0.9l0,0 C54,44.4,54.2,43.4,53.8,42.4z M50.8,44.1c-1.8,1-3.1,0.9-4,1.5c-0.8,0.5-0.3,1.7-0.9,2.1c-0.7,0.5-2.9,0-5.6,0.9 c-2.3,0.8-3.7,3-7.8,3s-5.5-2.2-7.8-3c-2.7-0.9-4.9-0.4-5.6-0.9c-0.6-0.4-0.1-1.5-0.9-2.1c-1-0.6-2.2-0.5-4-1.5 c-1.2-0.7-0.5-1.1-0.1-1.3c6.7-3.3,7.7-8.3,7.8-8.7c0.1-0.5,0.1-0.8-0.4-1.3c-0.5-0.4-2.6-1.8-3.2-2.2c-1-0.7-1.4-1.4-1.1-2.2 c0.2-0.6,0.8-0.8,1.3-0.8c0.2,0,0.4,0,0.5,0.1c1.1,0.2,2.1,0.8,2.7,0.9c0.1,0,0.1,0,0.2,0c0.3,0,0.4-0.2,0.4-0.5 c-0.1-1.2-0.2-3.5,0-5.6c0.3-3,1.2-4.4,2.3-5.7c0.5-0.6,3.1-3.3,7.9-3.3s7.3,2.7,7.9,3.3c1.1,1.3,2.1,2.8,2.3,5.7 c0.2,2.2,0,4.5,0,5.6c0,0.4,0.1,0.5,0.4,0.5c0.1,0,0.1,0,0.2,0c0.6-0.1,1.6-0.7,2.7-0.9c0.2,0,0.4-0.1,0.5-0.1 c0.6,0,1.1,0.2,1.3,0.8c0.3,0.8-0.1,1.5-1.1,2.2c-0.6,0.4-2.7,1.7-3.2,2.2c-0.5,0.5-0.4,0.8-0.4,1.3c0,0.4,1.1,5.4,7.8,8.7 C51.3,43,52,43.4,50.8,44.1z"/>
  <path fill="#FFFFFF" d="M51.4,43.1c-6.8-3.4-7.9-8.5-8-8.9c-0.1-0.5-0.1-0.8,0.4-1.3c0.5-0.5,2.7-1.8,3.3-2.2 c1-0.7,1.4-1.4,1.1-2.3c-0.2-0.6-0.8-0.8-1.4-0.8c-0.2,0-0.4,0-0.5,0.1c-1.1,0.2-2.2,0.8-2.8,0.9c-0.1,0-0.1,0-0.2,0 c-0.3,0-0.5-0.1-0.4-0.5c0.1-1.2,0.2-3.6,0.1-5.8c-0.3-3-1.2-4.5-2.4-5.9C40,15.8,37.5,13,32.5,13s-7.5,2.8-8.1,3.4 c-1.1,1.3-2.1,2.8-2.4,5.9c-0.2,2.2,0,4.6,0.1,5.8c0,0.4-0.1,0.5-0.4,0.5c-0.1,0-0.2,0-0.2,0c-0.6-0.1-1.7-0.7-2.8-0.9 c-0.2,0-0.4-0.1-0.5-0.1c-0.6,0-1.1,0.2-1.4,0.8c-0.3,0.9,0.1,1.6,1.1,2.3c0.6,0.4,2.8,1.8,3.3,2.2c0.5,0.5,0.4,0.8,0.4,1.3 c0,0.4-1.1,5.6-8,8.9c-0.4,0.2-1.1,0.6,0.1,1.3c1.9,1.1,3.1,0.9,4.1,1.6c0.8,0.5,0.3,1.7,0.9,2.1c0.7,0.5,2.9,0,5.8,0.9 c2.4,0.8,3.8,3,8,3s5.7-2.2,8-3c2.8-0.9,5-0.4,5.8-0.9c0.6-0.4,0.1-1.6,0.9-2.1c1-0.6,2.2-0.5,4.1-1.6 C52.5,43.7,51.8,43.3,51.4,43.1z"/>
</svg>
