<svg version="1.1" xmlns="http://www.w3.org/2000/svg" viewBox="0 0 64 64">
  <path d="M4,0h56c2.2,0,4,1.8,4,4v56c0,2.2-1.8,4-4,4H4c-2.2,0-4-1.8-4-4V4C0,1.8,1.8,0,4,0z"/>
  <path fill="#00F2EA" d="M28,27.1v-2c-0.7-0.1-1.4-0.1-2.1-0.2C17.1,25,10,31.9,10,40.4c0,5.2,2.7,9.8,6.8,12.6 c-2.7-2.8-4.3-6.6-4.3-10.5C12.5,34.2,19.4,27.3,28,27.1"/>
  <path fill="#00F2EA" d="M28.6,49c3.8,0,6.8-3,6.9-6.7l0-33.2h6.1c-0.1-0.7-0.2-1.4-0.2-2.1h-8.3l0,33.2 c-0.1,3.7-3.2,6.7-6.9,6.7c-1.1,0-2.2-0.3-3.2-0.8C24.3,47.9,26.4,49,28.6,49 M53,20.4v-1.8c-2.2,0-4.4-0.6-6.3-1.9 C48.4,18.5,50.6,19.8,53,20.4"/>
  <path fill="#FF004F" d="M46,17.6c-1.8-2.1-2.8-4.8-2.8-7.6H41C41.6,13.1,43.4,15.8,46,17.6 M25.8,33.9 c-3.8,0-6.8,3.1-6.8,7c0,2.6,1.4,5,3.7,6.2c-0.8-1.2-1.3-2.6-1.3-4.1c0-3.8,3.1-7,6.8-7c0.7,0,1.4,0.1,2,0.3v-8.5 c-0.7-0.1-1.3-0.1-2-0.1c-0.1,0-0.2,0-0.4,0v6.5C27.2,34,26.5,33.9,25.8,33.9"/>
  <path fill="#FF004F" d="M51.6,21v6.5c-4.3,0-8.3-1.4-11.5-3.7v16.9c0,8.4-6.9,15.3-15.3,15.3c-3.3,0-6.3-1-8.8-2.8 c2.9,3.1,6.9,4.9,11.2,4.9c8.4,0,15.3-6.9,15.3-15.3V25.8c3.4,2.4,7.4,3.7,11.5,3.7v-8.3C53.2,21.3,52.4,21.2,51.6,21"/>
  <path fill="#FFFFFF" d="M41.4,40.8V24c3.4,2.4,7.5,3.7,11.6,3.7v-6.4c-2.5-0.5-4.7-1.8-6.3-3.7 c-2.7-1.7-4.5-4.4-5.1-7.5h-6.1l0,33.1c-0.1,3.7-3.2,6.7-7,6.7c-2.3,0-4.4-1.1-5.7-2.9c-2.3-1.2-3.8-3.6-3.8-6.2c0-3.8,3.2-6.9,7-7 c0.7,0,1.4,0.1,2.1,0.3v-6.5c-8.3,0.2-15,6.9-15,15.2c0,4,1.6,7.6,4.1,10.4C19.7,55,22.8,56,26,56C34.5,56,41.4,49.2,41.4,40.8"/>
</svg>
