<svg version="1.1" xmlns="http://www.w3.org/2000/svg" viewBox="0 0 64 64">
  <path fill="#1DA1F2" d="M4,0h56c2.2,0,4,1.8,4,4v56c0,2.2-1.8,4-4,4H4c-2.2,0-4-1.8-4-4V4C0,1.8,1.8,0,4,0z"/>
  <path fill="#FFFFFF" d="M24.6,49c15.1,0,23.3-13.1,23.3-24.4c0-0.4,0-0.7,0-1.1c1.6-1.2,3-2.7,4.1-4.4 c-1.5,0.7-3.1,1.2-4.7,1.4c1.7-1.1,3-2.8,3.6-4.8c-1.6,1-3.4,1.7-5.2,2.1c-3.1-3.5-8.3-3.6-11.6-0.4c-2.1,2.1-3,5.2-2.4,8.2 c-6.6-0.4-12.7-3.6-16.9-9c-2.2,3.9-1.1,8.9,2.5,11.5c-1.3,0-2.6-0.4-3.7-1.1c0,0,0,0.1,0,0.1c0,4.1,2.8,7.6,6.6,8.4 c-1.2,0.4-2.5,0.4-3.7,0.2c1.1,3.5,4.2,5.9,7.7,6c-2.9,2.4-6.5,3.7-10.2,3.7c-0.7,0-1.3-0.1-2-0.1C15.8,47.7,20.1,49,24.6,49"/>
</svg>
